<svg xmlns="http://www.w3.org/2000/svg" viewBox="0 0 64 64">
  <rect width="64" height="64" rx="16" fill="#0057ff"/>
  <path fill="#fff" d="M16 19h15c5.5 0 9 2.9 9 7.2 0 2.9-1.5 5-4.1 6.1 3.3 1 5.1 3.7 5.1 7.4 0 5.1-4 8.3-10.3 8.3H16V19Zm8.4 11h5.1c1.9 0 3.1-1 3.1-2.6 0-1.7-1.1-2.6-3.1-2.6h-5.1V30Zm0 12.1h5.9c2.2 0 3.4-1.1 3.4-3 0-1.8-1.3-2.9-3.5-2.9h-5.8v5.9Z"/>
  <path fill="#fff" d="M42.5 22h14v4.1h-14V22Zm7.3 8.1c6.1 0 10.2 4.1 10.2 10.3 0 .7 0 1.3-.1 1.9H46.2c.5 2.1 2 3.3 4.2 3.3 1.6 0 2.8-.5 3.9-1.7l4.2 3.7c-1.9 2.3-4.7 3.6-8.3 3.6-6.6 0-10.8-4.2-10.8-10.4 0-6.3 4.2-10.7 10.4-10.7Zm3.5 8.4c-.2-2.1-1.5-3.4-3.5-3.4s-3.3 1.3-3.7 3.4h7.2Z"/>
</svg>
