<svg xmlns="http://www.w3.org/2000/svg" viewBox="0 0 64 64" role="img" aria-label="Detail Slicer">
  <defs>
    <linearGradient id="g" x1="10" y1="8" x2="56" y2="58" gradientUnits="userSpaceOnUse">
      <stop stop-color="#22d3ee"/>
      <stop offset="0.52" stop-color="#8b5cf6"/>
      <stop offset="1" stop-color="#f472b6"/>
    </linearGradient>
    <filter id="s" x="-20%" y="-20%" width="140%" height="140%">
      <feDropShadow dx="0" dy="5" stdDeviation="5" flood-color="#2dd4bf" flood-opacity=".35"/>
    </filter>
  </defs>
  <rect x="6" y="6" width="52" height="52" rx="16" fill="#111027"/>
  <path d="M18 16h28a6 6 0 0 1 6 6v20a6 6 0 0 1-6 6H18a6 6 0 0 1-6-6V22a6 6 0 0 1 6-6Z" fill="url(#g)" opacity=".9" filter="url(#s)"/>
  <path d="M20 25h24M20 32h24M20 39h24" stroke="white" stroke-width="3.2" stroke-linecap="round" opacity=".9"/>
  <path d="M32 19v26" stroke="#111027" stroke-width="3" stroke-linecap="round" opacity=".45"/>
  <path d="M42 18l-5 10h7l-6 12" fill="none" stroke="#fde68a" stroke-width="2.6" stroke-linecap="round" stroke-linejoin="round"/>
</svg>
