<svg width="32" height="32" viewBox="0 0 32 32" fill="none" xmlns="http://www.w3.org/2000/svg">
<g clip-path="url(#clip0_2335_988)">
<path d="M25.7219 20.5097C25.973 20.7608 25.973 21.1679 25.7219 21.419L23.095 24.046C22.8439 24.297 22.4368 24.297 22.1857 24.046L19.6101 21.4704C19.3591 21.2193 18.952 21.2193 18.7009 21.4704L17.0572 23.1137C16.8061 23.3648 16.8061 23.772 17.0572 24.0231L20.1919 27.1578C20.443 27.4089 20.443 27.816 20.192 28.0671L16.4477 31.8117C16.1966 32.0628 15.7895 32.0628 15.5384 31.8117L11.7938 28.067C11.5427 27.816 11.5427 27.4089 11.7937 27.1578L14.9277 24.0234C15.1788 23.7724 15.1788 23.3653 14.9277 23.1142L13.2836 21.4701C13.0325 21.219 12.6254 21.219 12.3743 21.4701L9.79877 24.0459C9.54768 24.297 9.14056 24.297 8.88946 24.0459L6.26249 21.419C6.0114 21.1679 6.0114 20.7608 6.26249 20.5097L8.88949 17.8827C9.14058 17.6316 9.54767 17.6316 9.79877 17.8827L12.3743 20.4582C12.6254 20.7093 13.0325 20.7093 13.2836 20.4583L15.538 18.2041C15.7891 17.953 16.1962 17.9531 16.4472 18.2041L18.7009 20.4578C18.952 20.7089 19.3591 20.7089 19.6102 20.4578L22.1857 17.8826C22.4368 17.6316 22.8438 17.6316 23.0949 17.8827L25.7219 20.5097ZM5.02713 13.8616C5.27822 14.1127 5.27822 14.5198 5.02713 14.7709L3.15025 16.6477C2.89916 16.8988 2.49206 16.8988 2.24097 16.6477L0.3641 14.7709C0.113009 14.5198 0.113008 14.1127 0.364099 13.8616L2.24097 11.9847C2.49206 11.7336 2.89916 11.7336 3.15025 11.9847L5.02713 13.8616ZM31.6203 13.8612C31.8714 14.1122 31.8714 14.5193 31.6203 14.7704L29.7435 16.6473C29.4924 16.8984 29.0853 16.8984 28.8342 16.6473L26.9573 14.7704C26.7062 14.5193 26.7062 14.1122 26.9573 13.8612L28.8342 11.9843C29.0853 11.7332 29.4924 11.7332 29.7435 11.9843L31.6203 13.8612ZM11.2474 13.8616C11.4985 14.1127 11.4985 14.5198 11.2474 14.7709L9.79918 16.2191C9.54809 16.4702 9.14099 16.4702 8.8899 16.2191L7.44167 14.7709C7.19058 14.5198 7.19058 14.1127 7.44167 13.8616L8.8899 12.4133C9.14099 12.1622 9.54809 12.1622 9.79918 12.4133L11.2474 13.8616ZM24.5436 13.8616C24.7947 14.1127 24.7947 14.5198 24.5436 14.7709L23.0954 16.2191C22.8443 16.4702 22.4372 16.4702 22.1861 16.2191L20.7379 14.7709C20.4868 14.5198 20.4868 14.1127 20.7379 13.8616L22.1861 12.4133C22.4372 12.1622 22.8443 12.1622 23.0954 12.4133L24.5436 13.8616ZM17.5205 13.8616C17.7715 14.1127 17.7715 14.5198 17.5205 14.7709L16.4473 15.844C16.1962 16.0951 15.7891 16.0951 15.538 15.844L14.4648 14.7709C14.2137 14.5198 14.2137 14.1127 14.4648 13.8616L15.538 12.7884C15.7891 12.5373 16.1962 12.5373 16.4473 12.7884L17.5205 13.8616ZM10.658 7.21306C10.9091 7.46415 10.9091 7.87125 10.658 8.12234L9.79918 8.9812C9.54809 9.23229 9.14099 9.23229 8.8899 8.9812L8.03105 8.12234C7.77996 7.87125 7.77996 7.46415 8.03105 7.21306L8.8899 6.3542C9.14099 6.10311 9.54809 6.10311 9.79918 6.3542L10.658 7.21306ZM23.9542 7.21306C24.2053 7.46415 24.2053 7.87125 23.9542 8.12234L23.0954 8.9812C22.8443 9.23229 22.4372 9.23229 22.1861 8.9812L21.3272 8.12234C21.0761 7.87125 21.0761 7.46415 21.3272 7.21306L22.1861 6.3542C22.4372 6.10311 22.8443 6.10311 23.0954 6.3542L23.9542 7.21306ZM17.0918 7.21306C17.3429 7.46415 17.3429 7.87125 17.0918 8.12234L16.4473 8.76688C16.1962 9.01797 15.7891 9.01797 15.538 8.76688L14.8935 8.12234C14.6424 7.87125 14.6424 7.46415 14.8935 7.21306L15.538 6.56852C15.7891 6.31743 16.1962 6.31743 16.4473 6.56852L17.0918 7.21306ZM16.8239 0.564955C17.075 0.816046 17.075 1.22315 16.8239 1.47424L16.4473 1.85087C16.1962 2.10197 15.7891 2.10197 15.538 1.85087L15.1614 1.47424C14.9103 1.22315 14.9103 0.816047 15.1614 0.564955L15.538 0.188319C15.7891 -0.0627727 16.1962 -0.062773 16.4473 0.188318L16.8239 0.564955Z" fill="white" style="fill:white;fill-opacity:1;"/>
</g>
<defs>
<clipPath id="clip0_2335_988">
<rect width="32" height="32" fill="white" style="fill:white;fill-opacity:1;"/>
</clipPath>
</defs>
</svg>
